# xmcd
#
# Track frame offsets: 
#        150
#        3960
#        19467
#        35315
#        51923
#        67283
#        85939
#        102497
#        126027
#        140133
#        154670
#        173264
#
# Disc length: 2385 seconds
#
# Revision: 0
# Processed by: cddbd v1.5.2PL0 Copyright (c) Steve Scherf et al.
# Submitted via: ExactAudioCopy v0.99pb4
#
DISCID=9e094f0c
DTITLE=Sabrina Starke - Yellow Brick Road
DYEAR=2008
DGENRE=R&B
TTITLE0=Intro "She Is"
TTITLE1=Romeo and Juliet
TTITLE2=Do for Love
TTITLE3=Second class woman
TTITLE4=Foolish
TTITLE5=Keep it simple
TTITLE6=It's time
TTITLE7=My King
TTITLE8=Electric Blue
TTITLE9=You are my love
TTITLE10=Yellow brick road
TTITLE11=Outro "Home"
EXTD=
EXTT0=
EXTT1=
EXTT2=
EXTT3=
EXTT4=
EXTT5=
EXTT6=
EXTT7=
EXTT8=
EXTT9=
EXTT10=
EXTT11=
PLAYORDER=
